<svg xmlns="http://www.w3.org/2000/svg" viewBox="0 0 96 96">
  <rect x="2.5" y="2.5" width="91" height="91" fill="none" stroke="#8a6d34" stroke-width="1.3"/>
    <rect x="6.5" y="6.5" width="83" height="83" fill="none" stroke="#8a6d34" stroke-width=".8" opacity=".38"/>
  <g><g stroke="#8a6d34" fill="none">
      <path d="M3 15 V5 a2 2 0 0 1 2 -2 H15" stroke-width="2"/>
      <path d="M7 19 V10 L10 7 H19" stroke-width="1" opacity=".75"/>
      <path d="M7 10 L7 7 L10 7" stroke-width="1" opacity=".45"/>
    </g>
    <rect x="1.4" y="1.4" width="4.2" height="4.2" transform="rotate(45 3.5 3.5)" fill="#6f571f" stroke="none"/>
    <circle cx="12.5" cy="12.5" r="1.1" fill="#8a6d34" stroke="none" opacity=".8"/></g>
  <g transform="rotate(90 48.0 48.0)"><g stroke="#8a6d34" fill="none">
      <path d="M3 15 V5 a2 2 0 0 1 2 -2 H15" stroke-width="2"/>
      <path d="M7 19 V10 L10 7 H19" stroke-width="1" opacity=".75"/>
      <path d="M7 10 L7 7 L10 7" stroke-width="1" opacity=".45"/>
    </g>
    <rect x="1.4" y="1.4" width="4.2" height="4.2" transform="rotate(45 3.5 3.5)" fill="#6f571f" stroke="none"/>
    <circle cx="12.5" cy="12.5" r="1.1" fill="#8a6d34" stroke="none" opacity=".8"/></g>
  <g transform="rotate(180 48.0 48.0)"><g stroke="#8a6d34" fill="none">
      <path d="M3 15 V5 a2 2 0 0 1 2 -2 H15" stroke-width="2"/>
      <path d="M7 19 V10 L10 7 H19" stroke-width="1" opacity=".75"/>
      <path d="M7 10 L7 7 L10 7" stroke-width="1" opacity=".45"/>
    </g>
    <rect x="1.4" y="1.4" width="4.2" height="4.2" transform="rotate(45 3.5 3.5)" fill="#6f571f" stroke="none"/>
    <circle cx="12.5" cy="12.5" r="1.1" fill="#8a6d34" stroke="none" opacity=".8"/></g>
  <g transform="rotate(270 48.0 48.0)"><g stroke="#8a6d34" fill="none">
      <path d="M3 15 V5 a2 2 0 0 1 2 -2 H15" stroke-width="2"/>
      <path d="M7 19 V10 L10 7 H19" stroke-width="1" opacity=".75"/>
      <path d="M7 10 L7 7 L10 7" stroke-width="1" opacity=".45"/>
    </g>
    <rect x="1.4" y="1.4" width="4.2" height="4.2" transform="rotate(45 3.5 3.5)" fill="#6f571f" stroke="none"/>
    <circle cx="12.5" cy="12.5" r="1.1" fill="#8a6d34" stroke="none" opacity=".8"/></g>
</svg>