<svg xmlns="http://www.w3.org/2000/svg" viewBox="0 0 112 112">
  <rect x="2.5" y="2.5" width="107" height="107" fill="none" stroke="#c9a86a" stroke-width="1.3"/>
    <rect x="6.5" y="6.5" width="99" height="99" fill="none" stroke="#c9a86a" stroke-width=".8" opacity=".38"/><rect x="4.5" y="4.5" width="103" height="103" fill="none" stroke="#e8c988" stroke-width=".6" opacity=".5"/>
  <g><g stroke="#c9a86a" fill="none">
      <path d="M3 15 V5 a2 2 0 0 1 2 -2 H15" stroke-width="2"/>
      <path d="M7 19 V10 L10 7 H19" stroke-width="1" opacity=".75"/>
      <path d="M7 10 L7 7 L10 7" stroke-width="1" opacity=".45"/>
    </g>
    <rect x="1.4" y="1.4" width="4.2" height="4.2" transform="rotate(45 3.5 3.5)" fill="#e8c988" stroke="none"/>
    <circle cx="12.5" cy="12.5" r="1.1" fill="#c9a86a" stroke="none" opacity=".8"/><g transform="translate(9 9)"><circle r="3.2" fill="none" stroke="#e8c988" stroke-width="1"/>
        <circle r="1.1" fill="#e8c988"/></g></g>
  <g transform="rotate(90 56.0 56.0)"><g stroke="#c9a86a" fill="none">
      <path d="M3 15 V5 a2 2 0 0 1 2 -2 H15" stroke-width="2"/>
      <path d="M7 19 V10 L10 7 H19" stroke-width="1" opacity=".75"/>
      <path d="M7 10 L7 7 L10 7" stroke-width="1" opacity=".45"/>
    </g>
    <rect x="1.4" y="1.4" width="4.2" height="4.2" transform="rotate(45 3.5 3.5)" fill="#e8c988" stroke="none"/>
    <circle cx="12.5" cy="12.5" r="1.1" fill="#c9a86a" stroke="none" opacity=".8"/><g transform="translate(9 9)"><circle r="3.2" fill="none" stroke="#e8c988" stroke-width="1"/>
        <circle r="1.1" fill="#e8c988"/></g></g>
  <g transform="rotate(180 56.0 56.0)"><g stroke="#c9a86a" fill="none">
      <path d="M3 15 V5 a2 2 0 0 1 2 -2 H15" stroke-width="2"/>
      <path d="M7 19 V10 L10 7 H19" stroke-width="1" opacity=".75"/>
      <path d="M7 10 L7 7 L10 7" stroke-width="1" opacity=".45"/>
    </g>
    <rect x="1.4" y="1.4" width="4.2" height="4.2" transform="rotate(45 3.5 3.5)" fill="#e8c988" stroke="none"/>
    <circle cx="12.5" cy="12.5" r="1.1" fill="#c9a86a" stroke="none" opacity=".8"/><g transform="translate(9 9)"><circle r="3.2" fill="none" stroke="#e8c988" stroke-width="1"/>
        <circle r="1.1" fill="#e8c988"/></g></g>
  <g transform="rotate(270 56.0 56.0)"><g stroke="#c9a86a" fill="none">
      <path d="M3 15 V5 a2 2 0 0 1 2 -2 H15" stroke-width="2"/>
      <path d="M7 19 V10 L10 7 H19" stroke-width="1" opacity=".75"/>
      <path d="M7 10 L7 7 L10 7" stroke-width="1" opacity=".45"/>
    </g>
    <rect x="1.4" y="1.4" width="4.2" height="4.2" transform="rotate(45 3.5 3.5)" fill="#e8c988" stroke="none"/>
    <circle cx="12.5" cy="12.5" r="1.1" fill="#c9a86a" stroke="none" opacity=".8"/><g transform="translate(9 9)"><circle r="3.2" fill="none" stroke="#e8c988" stroke-width="1"/>
        <circle r="1.1" fill="#e8c988"/></g></g>
</svg>